<svg width="24" height="25" viewBox="0 0 24 25" fill="none" xmlns="http://www.w3.org/2000/svg">
<path d="M11 11.9405V7.94049H13V11.9405H17V13.9405H13V17.9405H11V13.9405H7V11.9405H11ZM12 22.9405C6.47715 22.9405 2 18.4633 2 12.9405C2 7.41764 6.47715 2.94049 12 2.94049C17.5228 2.94049 22 7.41764 22 12.9405C22 18.4633 17.5228 22.9405 12 22.9405ZM12 20.9405C16.4183 20.9405 20 17.3588 20 12.9405C20 8.52221 16.4183 4.94049 12 4.94049C7.58172 4.94049 4 8.52221 4 12.9405C4 17.3588 7.58172 20.9405 12 20.9405Z" fill="#71717A"/>
</svg>
