<svg width="326" height="200" viewBox="0 0 326 200" fill="none" xmlns="http://www.w3.org/2000/svg">
<path d="M0 8C0 3.58173 3.58172 0 8 0H317.333C321.752 0 325.333 3.58172 325.333 8V192C325.333 196.418 321.752 200 317.333 200H8.00001C3.58173 200 0 196.418 0 192V8Z" fill="#F4F4F5"/>
<path d="M170.667 69.75C176.051 69.75 180.417 65.3848 180.417 60H184.917C184.917 65.3848 189.282 69.75 194.667 69.75V74.25C189.282 74.25 184.917 78.6152 184.917 84H180.417C180.417 78.6152 176.051 74.25 170.667 74.25V69.75ZM118.667 96C131.921 96 142.667 85.2548 142.667 72H150.667C150.667 85.2548 161.412 96 174.667 96V104C161.412 104 150.667 114.745 150.667 128H142.667C142.667 114.745 131.921 104 118.667 104V96ZM183.667 108C183.667 115.18 177.846 121 170.667 121V127C177.846 127 183.667 132.82 183.667 140H189.667C189.667 132.82 195.487 127 202.667 127V121C195.487 121 189.667 115.18 189.667 108H183.667Z" fill="#42B52E"/>
</svg>
