<svg width="28" height="29" viewBox="0 0 28 29" fill="none" xmlns="http://www.w3.org/2000/svg">
<path d="M0.5 6.881C0.5 3.84343 2.96243 1.381 6 1.381H22C25.0376 1.381 27.5 3.84343 27.5 6.881V22.881C27.5 25.9186 25.0376 28.381 22 28.381H6C2.96243 28.381 0.5 25.9186 0.5 22.881V6.881Z" fill="white"/>
<path d="M0.5 6.881C0.5 3.84343 2.96243 1.381 6 1.381H22C25.0376 1.381 27.5 3.84343 27.5 6.881V22.881C27.5 25.9186 25.0376 28.381 22 28.381H6C2.96243 28.381 0.5 25.9186 0.5 22.881V6.881Z" stroke="#DEDEE1"/>
<path d="M13.1666 14.0477V9.04767H14.8333V14.0477H19.8333V15.7143H14.8333V20.7143H13.1666V15.7143H8.16663V14.0477H13.1666Z" fill="#71717A"/>
</svg>
