<svg width="20" height="21" viewBox="0 0 20 21" fill="none" xmlns="http://www.w3.org/2000/svg">
<path d="M12.3572 7.34549L7.64312 12.0596C7.31768 12.385 7.31768 12.9126 7.64312 13.2381C7.96856 13.5635 8.49621 13.5635 8.82162 13.2381L13.5357 8.524C14.512 7.54769 14.512 5.96478 13.5357 4.98846C12.5594 4.01216 10.9765 4.01216 10.0001 4.98846L5.2861 9.70249C3.65892 11.3297 3.65892 13.9679 5.2861 15.5951C6.91328 17.2222 9.55146 17.2222 11.1786 15.5951L15.8927 10.881L17.0712 12.0596L12.3572 16.7736C10.0791 19.0517 6.38565 19.0517 4.10759 16.7736C1.82953 14.4955 1.82953 10.8021 4.10759 8.524L8.82162 3.80996C10.4488 2.18277 13.087 2.18277 14.7142 3.80996C16.3414 5.43714 16.3414 8.07533 14.7142 9.70249L10.0001 14.4166C9.02387 15.3929 7.44092 15.3929 6.46462 14.4166C5.4883 13.4402 5.4883 11.8573 6.46462 10.881L11.1786 6.16698L12.3572 7.34549Z" fill="#71717A"/>
</svg>
