<svg width="28" height="28" viewBox="0 0 28 28" fill="none" xmlns="http://www.w3.org/2000/svg">
<path d="M0 14C0 6.26801 6.26801 0 14 0C21.732 0 28 6.26801 28 14C28 21.732 21.732 28 14 28C6.26801 28 0 21.732 0 14Z" fill="#F4F4F5"/>
<path d="M15.6666 15.8767V17.6178C15.1453 17.4336 14.5844 17.3333 14 17.3333C11.2386 17.3333 8.99998 19.5719 8.99998 22.3333H7.33331C7.33331 18.6514 10.3181 15.6667 14 15.6667C14.5755 15.6667 15.134 15.7396 15.6666 15.8767ZM14 14.8333C11.2375 14.8333 8.99998 12.5958 8.99998 9.83334C8.99998 7.07084 11.2375 4.83334 14 4.83334C16.7625 4.83334 19 7.07084 19 9.83334C19 12.5958 16.7625 14.8333 14 14.8333ZM14 13.1667C15.8416 13.1667 17.3333 11.675 17.3333 9.83334C17.3333 7.99168 15.8416 6.50001 14 6.50001C12.1583 6.50001 10.6666 7.99168 10.6666 9.83334C10.6666 11.675 12.1583 13.1667 14 13.1667ZM19 18.1667V15.6667H20.6666V18.1667H23.1666V19.8333H20.6666V22.3333H19V19.8333H16.5V18.1667H19Z" fill="#71717A"/>
</svg>
