<svg width="20" height="20" viewBox="0 0 20 20" fill="none" xmlns="http://www.w3.org/2000/svg">
<path d="M9.99999 3.75C9.03643 3.74997 8.10983 4.12085 7.41239 4.7857C6.71495 5.45056 6.30019 6.35837 6.25416 7.32083C6.24665 7.48149 6.17751 7.63306 6.0611 7.74404C5.94469 7.85501 5.78999 7.91684 5.62916 7.91667H5.41666C5.08835 7.91667 4.76326 7.98133 4.45995 8.10697C4.15663 8.2326 3.88104 8.41675 3.64889 8.6489C3.41674 8.88104 3.2326 9.15664 3.10696 9.45996C2.98132 9.76327 2.91666 10.0884 2.91666 10.4167C2.91666 10.745 2.98132 11.0701 3.10696 11.3734C3.2326 11.6767 3.41674 11.9523 3.64889 12.1844C3.88104 12.4166 4.15663 12.6007 4.45995 12.7264C4.76326 12.852 5.08835 12.9167 5.41666 12.9167H8.39666C8.33334 13.3302 8.3174 13.7495 8.34916 14.1667H5.41666C4.45297 14.1659 3.52658 13.7941 2.8297 13.1285C2.13281 12.4629 1.71892 11.5545 1.6739 10.5919C1.62888 9.62923 1.95618 8.68621 2.58789 7.95846C3.21961 7.23071 4.10725 6.77409 5.06666 6.68333C5.26059 5.51498 5.86289 4.45337 6.76632 3.68754C7.66974 2.92171 8.81565 2.50137 9.99999 2.50137C11.1843 2.50137 12.3302 2.92171 13.2337 3.68754C14.1371 4.45337 14.7394 5.51498 14.9333 6.68333C15.4287 6.72977 15.9099 6.87433 16.3489 7.1086C16.7879 7.34287 17.1759 7.66216 17.4902 8.04787C17.8046 8.43357 18.039 8.87799 18.1799 9.3552C18.3208 9.83242 18.3653 10.3329 18.3108 10.8275C17.9195 10.2164 17.4094 9.69015 16.8108 9.28C16.6013 8.86951 16.2823 8.52494 15.8892 8.28435C15.4962 8.04376 15.0442 7.91651 14.5833 7.91667H14.37C14.2093 7.91663 14.0548 7.8547 13.9386 7.74375C13.8224 7.6328 13.7533 7.48134 13.7458 7.32083C13.6998 6.35837 13.285 5.45056 12.5876 4.7857C11.8902 4.12085 10.9636 3.74997 9.99999 3.75ZM18.3333 13.75C18.3333 14.9656 17.8504 16.1314 16.9909 16.9909C16.1314 17.8504 14.9656 18.3333 13.75 18.3333C12.5344 18.3333 11.3686 17.8504 10.5091 16.9909C9.64954 16.1314 9.16666 14.9656 9.16666 13.75C9.16666 12.5344 9.64954 11.3686 10.5091 10.5091C11.3686 9.64955 12.5344 9.16667 13.75 9.16667C14.9656 9.16667 16.1314 9.64955 16.9909 10.5091C17.8504 11.3686 18.3333 12.5344 18.3333 13.75ZM16.545 11.7883C16.5063 11.7495 16.4603 11.7187 16.4097 11.6977C16.3591 11.6767 16.3048 11.6659 16.25 11.6659C16.1952 11.6659 16.1409 11.6767 16.0903 11.6977C16.0397 11.7187 15.9937 11.7495 15.955 11.7883L12.9167 14.8275L11.545 13.455C11.4668 13.3768 11.3606 13.3328 11.25 13.3328C11.1393 13.3328 11.0332 13.3768 10.955 13.455C10.8768 13.5332 10.8328 13.6394 10.8328 13.75C10.8328 13.8606 10.8768 13.9668 10.955 14.045L12.6217 15.7117C12.6604 15.7505 12.7063 15.7813 12.757 15.8023C12.8076 15.8233 12.8619 15.8341 12.9167 15.8341C12.9715 15.8341 13.0257 15.8233 13.0764 15.8023C13.127 15.7813 13.173 15.7505 13.2117 15.7117L16.545 12.3783C16.5838 12.3396 16.6146 12.2936 16.6356 12.243C16.6566 12.1924 16.6674 12.1381 16.6674 12.0833C16.6674 12.0285 16.6566 11.9743 16.6356 11.9236C16.6146 11.873 16.5838 11.827 16.545 11.7883Z" fill="#71717A"/>
</svg>
