<svg width="326" height="200" viewBox="0 0 326 200" fill="none" xmlns="http://www.w3.org/2000/svg">
<path d="M0.333344 8C0.333344 3.58173 3.91507 0 8.33334 0H317.667C322.085 0 325.667 3.58172 325.667 8V192C325.667 196.418 322.085 200 317.667 200H8.33335C3.91508 200 0.333344 196.418 0.333344 192V8Z" fill="#F4F4F5"/>
<path d="M66.9933 36.4504C66.9933 36.4504 60.25 36.4504 58.5575 36.8902C57.6513 37.1434 56.9051 37.8896 56.6519 38.8092C56.2121 40.5017 56.2121 44.0067 56.2121 44.0067C56.2121 44.0067 56.2121 47.525 56.6519 49.1908C56.9051 50.1104 57.638 50.8432 58.5575 51.0965C60.2633 51.5496 66.9933 51.5496 66.9933 51.5496C66.9933 51.5496 73.75 51.5496 75.4425 51.1098C76.3621 50.8566 77.0949 50.137 77.3348 49.2042C77.7879 47.525 77.7879 44.02 77.7879 44.02C77.7879 44.02 77.8012 40.5017 77.3348 38.8092C77.0949 37.8896 76.3621 37.1568 75.4425 36.9169C73.75 36.4504 66.9933 36.4504 66.9933 36.4504ZM64.8477 40.7683L70.4583 44.0067L64.8477 47.2317V40.7683Z" fill="#FF0000"/>
<path d="M131 57.3333C138.364 57.3333 144.333 51.3634 144.333 43.9997C144.333 36.6361 138.364 30.6667 131 30.6667C123.636 30.6667 117.667 36.6361 117.667 43.9997C117.667 51.3634 123.636 57.3333 131 57.3333Z" fill="#2196F3"/>
<path fill-rule="evenodd" clip-rule="evenodd" d="M125.49 47.8107H134.309V41.3444C134.309 40.3702 133.519 39.5807 132.545 39.5807H123.727V46.047C123.727 47.0212 124.516 47.8107 125.49 47.8107ZM135.484 45.4596L139.011 47.8107V39.5807L135.484 41.9323L135.484 45.4596Z" fill="white"/>
<path d="M189.375 34.625V40.25H183.75" fill="#EA4335"/>
<path d="M189.375 34.625V40.25H196.875V44.125L202.5 39.5625V36.5C202.5 35.25 201.875 34.625 200.625 34.625" fill="#FFBA00"/>
<path d="M189.25 53.375V47.75H196.875V44L202.5 48.4375V51.5C202.5 52.75 201.875 53.375 200.625 53.375" fill="#00AC47"/>
<path d="M196.875 44L202.5 39.4375V48.5625" fill="#00832D"/>
<path d="M202.5 39.4375L205.125 37.3125C205.688 36.875 206.25 36.875 206.25 37.75V50.25C206.25 51.125 205.688 51.125 205.125 50.6875L202.5 48.5625" fill="#00AC47"/>
<path d="M183.75 47.625V51.5C183.75 52.75 184.375 53.375 185.625 53.375H189.375V47.625" fill="#0066DA"/>
<path d="M183.75 40.25H189.375V47.75H183.75" fill="#2684FC"/>
<path d="M269.125 39.5625C267.938 46.375 261.125 52.1875 259.062 53.5C257.062 54.8125 255.188 52.9375 254.5 51.625C253.75 50 251.438 41.375 250.812 40.625C250.25 39.875 248.375 41.375 248.375 41.375L247.562 40.1875C247.562 40.1875 251.25 35.75 254.062 35.25C257 34.625 257 39.8125 257.75 42.625C258.438 45.4375 258.875 47 259.438 47C260.062 47 261.25 45.5 262.5 43.0625C263.812 40.75 262.438 38.625 259.938 40.125C261 34.1875 270.312 32.75 269.125 39.5625Z" fill="#1EB8EB"/>
<path d="M107.242 113.333H91.4848C90.4848 113.333 89.6667 112.515 89.6667 111.515V88.4848C89.6667 87.4848 90.4848 86.6667 91.4848 86.6667H102.394L109.061 93.3333V111.515C109.061 112.515 108.242 113.333 107.242 113.333Z" fill="#3086F6"/>
<path d="M102.394 86.6667L109.061 93.3333H102.394V86.6667Z" fill="#0C67D6"/>
<path d="M104.818 98.4848H93.9091V96.9697H104.818V98.4848ZM104.818 100.606H93.9091V102.121H104.818V100.606ZM101.788 104.242H93.9091V105.758H101.788V104.242Z" fill="#FDFFFF"/>
<path d="M166.394 86.6667L173.061 93.3333L169.727 93.9394L166.394 93.3333L165.788 90L166.394 86.6667Z" fill="#188038"/>
<path d="M166.394 93.3333V86.6667H155.485C154.48 86.6667 153.667 87.4803 153.667 88.4848V111.515C153.667 112.52 154.48 113.333 155.485 113.333H171.242C172.247 113.333 173.061 112.52 173.061 111.515V93.3333H166.394Z" fill="#34A853"/>
<path d="M157.303 96.9697V105.758H169.424V96.9697H157.303ZM162.606 104.242H158.818V102.121H162.606V104.242ZM162.606 100.606H158.818V98.4848H162.606V100.606ZM167.909 104.242H164.121V102.121H167.909V104.242ZM167.909 100.606H164.121V98.4848H167.909V100.606Z" fill="white"/>
<path d="M235.242 113.333H219.485C218.485 113.333 217.667 112.515 217.667 111.515V88.4848C217.667 87.4848 218.485 86.6667 219.485 86.6667H230.394L237.061 93.3333V111.515C237.061 112.515 236.242 113.333 235.242 113.333Z" fill="#F8BF08"/>
<path d="M230.394 86.6667L237.061 93.3333H230.394V86.6667Z" fill="#F59307"/>
<path d="M221.303 97.1212V105.606H233.424V97.1212H221.303ZM231.909 104.091H222.818V98.6364H231.909V104.091Z" fill="#FDFFFF"/>
<path d="M70.581 155.35L59.512 153.4V167.809C59.5121 167.966 59.5431 168.121 59.6031 168.265C59.6631 168.41 59.7511 168.541 59.8618 168.652C59.9726 168.762 60.1041 168.85 60.2488 168.91C60.3934 168.969 60.5485 169 60.705 169H79.805C79.9617 169 80.1169 168.97 80.2618 168.91C80.4067 168.851 80.5385 168.763 80.6495 168.652C80.7605 168.542 80.8485 168.41 80.9087 168.266C80.9688 168.121 80.9999 167.966 81 167.809V162.5L70.581 155.35Z" fill="#185C37"/>
<path d="M70.581 143H60.705C60.5485 143 60.3934 143.031 60.2488 143.09C60.1041 143.15 59.9726 143.238 59.8618 143.348C59.7511 143.459 59.6631 143.59 59.6031 143.735C59.5431 143.879 59.5121 144.034 59.512 144.191V149.5L70.581 156L76.442 157.95L81 156V149.5L70.581 143Z" fill="#21A366"/>
<path d="M59.512 149.5H70.581V156H59.512V149.5Z" fill="#107C41"/>
<path opacity="0.1" d="M67.434 148.2H59.512V164.45H67.434C67.7497 164.448 68.052 164.323 68.2755 164.1C68.499 163.877 68.6256 163.575 68.628 163.259V149.391C68.6256 149.075 68.499 148.773 68.2755 148.55C68.052 148.327 67.7497 148.202 67.434 148.2Z" fill="black"/>
<path opacity="0.2" d="M66.783 148.85H59.512V165.1H66.783C67.0987 165.098 67.401 164.973 67.6245 164.75C67.848 164.527 67.9746 164.225 67.977 163.909V150.041C67.9746 149.725 67.848 149.423 67.6245 149.2C67.401 148.977 67.0987 148.852 66.783 148.85Z" fill="black"/>
<path opacity="0.2" d="M66.783 148.85H59.512V163.8H66.783C67.0987 163.798 67.401 163.673 67.6245 163.45C67.848 163.227 67.9746 162.925 67.977 162.609V150.041C67.9746 149.725 67.848 149.423 67.6245 149.2C67.401 148.977 67.0987 148.852 66.783 148.85Z" fill="black"/>
<path opacity="0.2" d="M66.132 148.85H59.512V163.8H66.132C66.4477 163.798 66.75 163.673 66.9735 163.45C67.197 163.227 67.3236 162.925 67.326 162.609V150.041C67.3236 149.725 67.197 149.423 66.9735 149.2C66.75 148.977 66.4477 148.852 66.132 148.85Z" fill="black"/>
<path d="M54.194 148.85H66.132C66.4482 148.85 66.7516 148.975 66.9755 149.198C67.1994 149.422 67.3255 149.725 67.326 150.041V161.959C67.3255 162.275 67.1994 162.578 66.9755 162.802C66.7516 163.025 66.4482 163.15 66.132 163.15H54.194C54.0374 163.15 53.8822 163.12 53.7375 163.06C53.5927 163 53.4611 162.913 53.3502 162.802C53.2393 162.691 53.1513 162.56 53.0912 162.415C53.0311 162.271 53.0001 162.116 53 161.959V150.041C53.0001 149.884 53.0311 149.729 53.0912 149.585C53.1513 149.44 53.2393 149.309 53.3502 149.198C53.4611 149.087 53.5927 149 53.7375 148.94C53.8822 148.88 54.0374 148.85 54.194 148.85Z" fill="url(#paint0_linear_29_4398)"/>
<path d="M56.7 159.873L59.211 155.989L56.911 152.127H58.758L60.013 154.6C60.129 154.834 60.213 155.008 60.251 155.124H60.268C60.35 154.936 60.437 154.755 60.528 154.578L61.87 152.131H63.57L61.211 155.971L63.63 159.876H61.821L60.371 157.165C60.3037 157.048 60.2465 156.926 60.2 156.8H60.176C60.1337 156.923 60.0773 157.041 60.008 157.151L58.515 159.873H56.7Z" fill="white"/>
<path d="M79.806 143H70.581V149.5H81V144.191C80.9999 144.034 80.9689 143.879 80.9088 143.735C80.8487 143.59 80.7607 143.459 80.6498 143.348C80.5389 143.237 80.4073 143.15 80.2625 143.09C80.1178 143.03 79.9626 143 79.806 143Z" fill="#33C481"/>
<path d="M70.581 156H81V162.5H70.581V156Z" fill="#107C41"/>
<path d="M140.333 142.667H121.667C119.458 142.667 117.667 144.458 117.667 146.667V165.333C117.667 167.542 119.458 169.333 121.667 169.333H140.333C142.542 169.333 144.333 167.542 144.333 165.333V146.667C144.333 144.458 142.542 142.667 140.333 142.667Z" fill="#C80A0A"/>
<path d="M139.177 158.396C138.708 157.875 137.667 157.615 136.26 157.615C135.427 157.615 134.542 157.719 133.5 157.875C132.397 156.842 131.481 155.626 130.792 154.281C131.312 152.719 131.677 151.208 131.677 150.062C131.677 149.177 131.365 147.771 130.115 147.771C129.75 147.771 129.437 147.979 129.229 148.292C128.708 149.229 128.917 151.312 129.906 153.5C129.183 155.59 128.313 157.627 127.302 159.594C124.542 160.74 122.719 161.99 122.562 162.979C122.458 163.448 122.771 164.229 123.865 164.229C125.479 164.229 127.25 161.885 128.604 159.49C130.167 158.952 131.769 158.534 133.396 158.24C135.375 159.958 137.094 160.219 137.927 160.219C139.594 160.219 139.75 159.021 139.177 158.396ZM129.49 148.448C129.906 147.823 130.844 148.031 130.844 149.281C130.844 150.115 130.583 151.469 130.062 153.031C129.125 150.844 129.125 149.125 129.49 148.448ZM122.875 163.031C123.031 162.198 124.594 161.052 127.042 160.062C125.687 162.354 124.333 163.812 123.5 163.812C122.979 163.812 122.823 163.344 122.875 163.031ZM133.135 157.927C131.668 158.201 130.223 158.584 128.812 159.073C129.583 157.682 130.212 156.216 130.687 154.698C131.372 155.868 132.194 156.952 133.135 157.927ZM133.812 158.135C135.479 157.875 136.885 157.927 137.51 158.031C139.021 158.344 138.5 160.167 136.833 159.75C135.635 159.49 134.646 158.812 133.812 158.135Z" fill="white"/>
<g clip-path="url(#clip0_29_4398)">
<path d="M195.833 167.667C202.277 167.667 207.5 162.443 207.5 156C207.5 149.557 202.277 144.333 195.833 144.333C189.39 144.333 184.167 149.557 184.167 156C184.167 162.443 189.39 167.667 195.833 167.667Z" fill="url(#paint1_linear_29_4398)"/>
<mask id="mask0_29_4398" style="mask-type:alpha" maskUnits="userSpaceOnUse" x="184" y="144" width="24" height="24">
<path d="M195.833 167.667C202.277 167.667 207.5 162.443 207.5 156C207.5 149.557 202.277 144.333 195.833 144.333C189.39 144.333 184.167 149.557 184.167 156C184.167 162.443 189.39 167.667 195.833 167.667Z" fill="#C4C4C4"/>
</mask>
<g mask="url(#mask0_29_4398)">
<path d="M210.833 142.667H196.667V156.833H210.833V142.667Z" fill="url(#paint2_linear_29_4398)"/>
<path d="M186.667 152.667C186.667 151.286 187.786 150.167 189.167 150.167H195.833C197.214 150.167 198.333 151.286 198.333 152.667V162.667C198.333 164.047 197.214 165.167 195.833 165.167H186.667V152.667Z" fill="black" fill-opacity="0.3"/>
<path d="M196.667 142.667H182.5V156.833H196.667V142.667Z" fill="#EB6C4D"/>
</g>
<path d="M195 148.5H183.333C182.413 148.5 181.667 149.246 181.667 150.167V161.833C181.667 162.754 182.413 163.5 183.333 163.5H195C195.92 163.5 196.667 162.754 196.667 161.833V150.167C196.667 149.246 195.92 148.5 195 148.5Z" fill="url(#paint3_linear_29_4398)"/>
<path d="M192.5 154.714C192.5 152.917 191.317 151.833 189.44 151.833H186.667V160.167H188.388V157.631H189.368C191.125 157.631 192.5 156.631 192.5 154.714ZM190.755 154.75C190.755 155.56 190.241 156.083 189.404 156.083H188.388V153.393H189.392C190.229 153.393 190.755 153.833 190.755 154.75Z" fill="white"/>
</g>
<path d="M271.806 143H252.705C252.548 143 252.393 143.031 252.249 143.09C252.104 143.15 251.973 143.238 251.862 143.348C251.751 143.459 251.663 143.59 251.603 143.735C251.543 143.879 251.512 144.034 251.512 144.191V149.5L262.581 152.75L273 149.5V144.191C273 144.034 272.969 143.879 272.909 143.735C272.849 143.59 272.761 143.459 272.65 143.348C272.539 143.237 272.407 143.15 272.263 143.09C272.118 143.03 271.963 143 271.806 143Z" fill="#41A5EE"/>
<path d="M273 149.5H251.512V156L262.581 157.95L273 156V149.5Z" fill="#2B7CD3"/>
<path d="M251.512 156V162.5L261.93 163.8L273 162.5V156H251.512Z" fill="#185ABD"/>
<path d="M252.705 169H271.805C271.962 169 272.117 168.97 272.262 168.91C272.407 168.851 272.538 168.763 272.649 168.652C272.76 168.542 272.849 168.41 272.909 168.266C272.969 168.121 273 167.966 273 167.809V162.5H251.512V167.809C251.512 167.966 251.543 168.121 251.603 168.265C251.663 168.41 251.751 168.541 251.862 168.652C251.973 168.762 252.104 168.85 252.249 168.91C252.393 168.969 252.548 169 252.705 169Z" fill="#103F91"/>
<path opacity="0.1" d="M259.434 148.2H251.512V164.45H259.434C259.75 164.448 260.052 164.323 260.275 164.1C260.499 163.877 260.626 163.575 260.628 163.259V149.391C260.626 149.075 260.499 148.773 260.275 148.55C260.052 148.327 259.75 148.202 259.434 148.2Z" fill="black"/>
<path opacity="0.2" d="M258.783 148.85H251.512V165.1H258.783C259.099 165.098 259.401 164.973 259.624 164.75C259.848 164.527 259.975 164.225 259.977 163.909V150.041C259.975 149.725 259.848 149.423 259.624 149.2C259.401 148.977 259.099 148.852 258.783 148.85Z" fill="black"/>
<path opacity="0.2" d="M258.783 148.85H251.512V163.8H258.783C259.099 163.798 259.401 163.673 259.624 163.45C259.848 163.227 259.975 162.925 259.977 162.609V150.041C259.975 149.725 259.848 149.423 259.624 149.2C259.401 148.977 259.099 148.852 258.783 148.85Z" fill="black"/>
<path opacity="0.2" d="M258.132 148.85H251.512V163.8H258.132C258.448 163.798 258.75 163.673 258.973 163.45C259.197 163.227 259.324 162.925 259.326 162.609V150.041C259.324 149.725 259.197 149.423 258.973 149.2C258.75 148.977 258.448 148.852 258.132 148.85Z" fill="black"/>
<path d="M246.194 148.85H258.132C258.448 148.85 258.752 148.975 258.976 149.198C259.199 149.422 259.325 149.725 259.326 150.041V161.959C259.325 162.275 259.199 162.578 258.976 162.802C258.752 163.025 258.448 163.15 258.132 163.15H246.194C246.037 163.15 245.882 163.12 245.737 163.06C245.593 163 245.461 162.913 245.35 162.802C245.239 162.691 245.151 162.56 245.091 162.415C245.031 162.271 245 162.116 245 161.959V150.041C245 149.884 245.031 149.729 245.091 149.585C245.151 149.44 245.239 149.309 245.35 149.198C245.461 149.087 245.593 149 245.737 148.94C245.882 148.88 246.037 148.85 246.194 148.85Z" fill="url(#paint4_linear_29_4398)"/>
<path d="M249.9 157.988C249.923 158.172 249.939 158.332 249.946 158.469H249.974C249.984 158.339 250.006 158.182 250.039 157.999C250.072 157.816 250.101 157.661 250.128 157.534L251.383 152.127H253.007L254.307 157.453C254.383 157.782 254.437 158.116 254.469 158.453H254.491C254.515 158.125 254.56 157.8 254.626 157.478L255.665 152.12H257.142L255.318 159.868H253.591L252.354 154.742C252.318 154.594 252.277 154.401 252.232 154.164C252.187 153.927 252.159 153.753 252.148 153.644H252.127C252.113 153.77 252.085 153.957 252.043 154.205C252.001 154.454 251.968 154.637 251.943 154.757L250.78 159.871H249.024L247.19 152.127H248.69L249.821 157.545C249.855 157.691 249.881 157.839 249.9 157.988Z" fill="white"/>
<defs>
<linearGradient id="paint0_linear_29_4398" x1="55.494" y1="147.914" x2="64.832" y2="164.086" gradientUnits="userSpaceOnUse">
<stop stop-color="#18884F"/>
<stop offset="0.5" stop-color="#117E43"/>
<stop offset="1" stop-color="#0B6631"/>
</linearGradient>
<linearGradient id="paint1_linear_29_4398" x1="184.167" y1="157.609" x2="207.5" y2="157.609" gradientUnits="userSpaceOnUse">
<stop stop-color="#A73A24"/>
<stop offset="1" stop-color="#F75936"/>
</linearGradient>
<linearGradient id="paint2_linear_29_4398" x1="207.917" y1="151" x2="196.667" y2="151" gradientUnits="userSpaceOnUse">
<stop stop-color="#FDB8A3"/>
<stop offset="1" stop-color="#F1876D"/>
</linearGradient>
<linearGradient id="paint3_linear_29_4398" x1="181.667" y1="157.035" x2="196.667" y2="157.035" gradientUnits="userSpaceOnUse">
<stop stop-color="#A73A24"/>
<stop offset="1" stop-color="#F75936"/>
</linearGradient>
<linearGradient id="paint4_linear_29_4398" x1="247.494" y1="147.914" x2="256.832" y2="164.086" gradientUnits="userSpaceOnUse">
<stop stop-color="#2368C4"/>
<stop offset="0.5" stop-color="#1A5DBE"/>
<stop offset="1" stop-color="#1146AC"/>
</linearGradient>
<clipPath id="clip0_29_4398">
<rect width="26.6667" height="26.6667" fill="white" transform="translate(181.667 142.667)"/>
</clipPath>
</defs>
</svg>
