<svg width="18" height="11" viewBox="0 0 18 11" fill="none" xmlns="http://www.w3.org/2000/svg">
<path d="M6.80261 0.955353L6.60469 2.20883L5.77344 2.15605C6.20886 2.59147 6.45955 3.18522 6.45955 3.83175C6.45955 4.67619 6.03733 5.44147 5.35121 5.91647C5.94496 6.35189 6.31441 7.01161 6.31441 7.80328C6.31441 9.1887 5.1533 10.363 3.51718 10.363C2.19774 10.363 1.19496 9.62411 0.851903 8.50259L2.11857 7.73731C2.26371 8.48939 2.80468 8.96439 3.50399 8.96439C4.25607 8.96439 4.77066 8.44981 4.77066 7.7637C4.77066 7.06439 4.24288 6.563 3.4776 6.563C3.01579 6.563 2.60677 6.74772 2.25052 7.13036L1.89427 6.0748C1.04982 5.5998 0.535236 4.78175 0.535236 3.81855C0.535236 2.39355 1.65677 1.16646 3.56996 1.0873L6.80261 0.955353ZM2.17135 3.81855C2.17135 4.55744 2.73871 5.1248 3.50399 5.1248C4.26927 5.1248 4.84982 4.55744 4.84982 3.81855C4.84982 3.09286 4.26927 2.49911 3.50399 2.49911C2.75191 2.49911 2.17135 3.09286 2.17135 3.81855Z" fill="#42B52E"/>
<path d="M17.2019 3.51508V7.2887H15.4075V3.73938C15.4075 3.06647 15.0248 2.67063 14.4838 2.67063C13.9033 2.67063 13.4943 3.11924 13.4943 3.80536V7.2887H11.6866V3.73938C11.6866 3.06647 11.3172 2.67063 10.7762 2.67063C10.1824 2.67063 9.77342 3.11924 9.77342 3.80536V7.2887H7.97897V1.39077L9.72064 1.17966V1.89216C10.1297 1.40396 10.7102 1.12688 11.3963 1.12688C12.1352 1.12688 12.7026 1.43035 13.072 1.99772C13.5075 1.43035 14.2068 1.12688 15.0116 1.12688C16.397 1.12688 17.2019 2.05049 17.2019 3.51508Z" fill="#42B52E"/>
</svg>
