<svg width="20" height="20" viewBox="0 0 20 20" fill="none" xmlns="http://www.w3.org/2000/svg">
<path d="M6.48438 4.14062V7.65625H2.96875" fill="#EA4335"/>
<path d="M6.48438 4.14062V7.65625H11.1719V10.0781L14.6875 7.22656V5.3125C14.6875 4.53125 14.2969 4.14062 13.5156 4.14062" fill="#FFBA00"/>
<path d="M6.40625 15.8594V12.3438H11.1719V10L14.6875 12.7734V14.6875C14.6875 15.4688 14.2969 15.8594 13.5156 15.8594" fill="#00AC47"/>
<path d="M11.1719 10L14.6875 7.14844V12.8516" fill="#00832D"/>
<path d="M14.6875 7.14845L16.3281 5.82033C16.6797 5.54689 17.0312 5.54689 17.0312 6.09376V13.9063C17.0312 14.4531 16.6797 14.4531 16.3281 14.1797L14.6875 12.8516" fill="#00AC47"/>
<path d="M2.96875 12.2656V14.6875C2.96875 15.4688 3.35938 15.8594 4.14062 15.8594H6.48438V12.2656" fill="#0066DA"/>
<path d="M2.96875 7.65625H6.48438V12.3438H2.96875" fill="#2684FC"/>
</svg>
