<svg width="326" height="200" viewBox="0 0 326 200" fill="none" xmlns="http://www.w3.org/2000/svg">
<path d="M0.666626 8C0.666626 3.58173 4.24835 0 8.66663 0H318C322.418 0 326 3.58172 326 8V192C326 196.418 322.418 200 318 200H8.66664C4.24836 200 0.666626 196.418 0.666626 192V8Z" fill="#F4F4F5"/>
<path d="M201.552 52C196.313 52 191.634 54.4388 188.58 58.2394C185.526 54.4388 180.847 52 175.606 52C173.577 52 171.933 53.6452 171.933 55.6741C171.933 57.7026 173.577 59.3481 175.606 59.3481C180.735 59.3481 184.906 63.5281 184.906 68.6676V131.333C184.906 136.472 180.735 140.652 175.606 140.652C173.577 140.652 171.933 142.297 171.933 144.326C171.933 146.355 173.577 148 175.606 148C180.847 148 185.526 145.561 188.58 141.761C191.634 145.561 196.313 148 201.552 148C203.581 148 205.226 146.356 205.226 144.326C205.226 142.297 203.581 140.652 201.552 140.652C196.425 140.652 192.254 136.472 192.254 131.333V68.6673C192.254 63.5277 196.425 59.3477 201.552 59.3477C203.581 59.3477 205.226 57.7026 205.226 55.6737C205.226 53.6455 203.581 52 201.552 52Z" fill="#A1A1AA"/>
<path d="M213.674 123.479C212.707 123.479 211.759 123.872 211.075 124.556C210.392 125.239 209.999 126.186 209.999 127.154C209.999 128.119 210.392 129.067 211.075 129.751C211.763 130.434 212.707 130.827 213.674 130.827C214.639 130.827 215.587 130.434 216.271 129.751C216.954 129.067 217.347 128.119 217.347 127.154C217.347 126.187 216.954 125.239 216.271 124.556C215.587 123.872 214.643 123.479 213.674 123.479Z" fill="#A1A1AA"/>
<path d="M125.579 123.479C123.552 123.479 121.905 125.125 121.905 127.153C121.905 129.181 123.551 130.827 125.579 130.827C127.607 130.827 129.253 129.181 129.253 127.153C129.253 125.125 127.607 123.479 125.579 123.479Z" fill="#A1A1AA"/>
<path d="M201.091 123.479C199.059 123.479 197.417 125.125 197.417 127.153C197.417 129.181 199.06 130.827 201.091 130.827C203.118 130.827 204.765 129.181 204.765 127.153C204.764 125.125 203.118 123.479 201.091 123.479Z" fill="#A1A1AA"/>
<path d="M150.747 123.479C148.719 123.479 147.073 125.125 147.073 127.153C147.073 129.181 148.719 130.827 150.747 130.827C152.778 130.827 154.421 129.181 154.421 127.153C154.421 125.125 152.778 123.479 150.747 123.479Z" fill="#A1A1AA"/>
<path d="M138.165 123.479C136.133 123.479 134.491 125.125 134.491 127.153C134.491 129.181 136.133 130.827 138.165 130.827C140.193 130.827 141.839 129.181 141.839 127.153C141.838 125.125 140.193 123.479 138.165 123.479Z" fill="#A1A1AA"/>
<path d="M163.333 123.479C161.306 123.479 159.659 125.125 159.659 127.153C159.659 129.181 161.305 130.827 163.333 130.827C165.361 130.827 167.007 129.181 167.007 127.153C167.007 125.125 165.361 123.479 163.333 123.479Z" fill="#A1A1AA"/>
<path d="M175.915 130.827C177.947 130.827 179.589 129.181 179.589 127.153C179.589 125.125 177.947 123.479 175.915 123.479C173.888 123.479 172.241 125.125 172.241 127.153C172.241 129.181 173.887 130.827 175.915 130.827Z" fill="#A1A1AA"/>
<path d="M112.997 123.479C112.027 123.479 111.079 123.872 110.396 124.556C109.713 125.239 109.323 126.186 109.323 127.154C109.323 128.119 109.713 129.067 110.396 129.751C111.083 130.434 112.027 130.827 112.997 130.827C113.963 130.827 114.908 130.434 115.594 129.751C116.278 129.067 116.671 128.119 116.671 127.154C116.671 126.187 116.278 125.239 115.594 124.556C114.911 123.872 113.963 123.479 112.997 123.479Z" fill="#A1A1AA"/>
<path d="M112.997 84.2246C110.966 84.2246 109.323 85.8669 109.323 87.8947C109.323 89.9268 110.966 91.5683 112.997 91.5683C115.025 91.5683 116.671 89.9265 116.671 87.8947C116.671 85.8669 115.025 84.2246 112.997 84.2246Z" fill="#A1A1AA"/>
<path d="M112.997 110.393C110.966 110.393 109.323 112.038 109.323 114.066C109.323 116.094 110.966 117.74 112.997 117.74C115.025 117.74 116.671 116.094 116.671 114.066C116.671 112.038 115.025 110.393 112.997 110.393Z" fill="#A1A1AA"/>
<path d="M112.997 97.3066C110.966 97.3066 109.323 98.9525 109.323 100.981C109.323 103.013 110.966 104.655 112.997 104.655C115.025 104.655 116.671 103.013 116.671 100.981C116.671 98.9525 115.025 97.3066 112.997 97.3066Z" fill="#A1A1AA"/>
<path d="M112.997 71.1377C112.031 71.1377 111.083 71.5276 110.396 72.2111C109.713 72.8978 109.319 73.842 109.319 74.8117C109.319 75.7778 109.713 76.7221 110.396 77.4095C111.083 78.093 112.027 78.4858 112.997 78.4858C113.963 78.4858 114.907 78.093 115.594 77.4095C116.278 76.7221 116.671 75.7782 116.671 74.8117C116.671 73.842 116.278 72.8978 115.594 72.2114C114.907 71.528 113.96 71.1377 112.997 71.1377Z" fill="#A1A1AA"/>
<path d="M175.918 78.4854C177.947 78.4854 179.592 76.8395 179.592 74.8081C179.592 72.7807 177.947 71.1377 175.918 71.1377C173.887 71.1377 172.241 72.7807 172.241 74.8081C172.241 76.8392 173.887 78.4854 175.918 78.4854Z" fill="#A1A1AA"/>
<path d="M138.165 71.1377C136.133 71.1377 134.491 72.7807 134.491 74.8081C134.491 76.8395 136.133 78.4854 138.165 78.4854C140.193 78.4854 141.839 76.8395 141.839 74.8081C141.838 72.7807 140.193 71.1377 138.165 71.1377Z" fill="#A1A1AA"/>
<path d="M150.747 71.1377C148.719 71.1377 147.073 72.7807 147.073 74.8081C147.073 76.8395 148.719 78.4854 150.747 78.4854C152.778 78.4854 154.421 76.8395 154.421 74.8081C154.421 72.7807 152.778 71.1377 150.747 71.1377Z" fill="#A1A1AA"/>
<path d="M201.091 71.1377C199.059 71.1377 197.417 72.7807 197.417 74.8081C197.417 76.8395 199.06 78.4854 201.091 78.4854C203.118 78.4854 204.765 76.8395 204.765 74.8081C204.764 72.7807 203.118 71.1377 201.091 71.1377Z" fill="#A1A1AA"/>
<path d="M125.579 71.1377C123.552 71.1377 121.905 72.7807 121.905 74.8081C121.905 76.8395 123.551 78.4854 125.579 78.4854C127.607 78.4854 129.253 76.8395 129.253 74.8081C129.253 72.7807 127.607 71.1377 125.579 71.1377Z" fill="#A1A1AA"/>
<path d="M163.333 71.1377C161.302 71.1377 159.659 72.7807 159.659 74.8081C159.659 76.8395 161.302 78.4854 163.333 78.4854C165.361 78.4854 167.007 76.8395 167.007 74.8081C167.007 72.7807 165.361 71.1377 163.333 71.1377Z" fill="#A1A1AA"/>
<path d="M213.674 78.4854C214.643 78.4854 215.587 78.0926 216.271 77.4092C216.958 76.7253 217.347 75.7778 217.347 74.8114C217.347 73.8417 216.958 72.8942 216.271 72.2111C215.587 71.5276 214.64 71.1377 213.674 71.1377C212.707 71.1377 211.763 71.5276 211.075 72.2111C210.392 72.8978 209.999 73.8417 209.999 74.8114C209.999 75.7775 210.392 76.7217 211.075 77.4092C211.76 78.0922 212.707 78.4854 213.674 78.4854Z" fill="#A1A1AA"/>
<path d="M213.674 110.393C211.645 110.393 209.999 112.038 209.999 114.066C209.999 116.094 211.645 117.74 213.674 117.74C215.705 117.74 217.347 116.094 217.347 114.066C217.347 112.038 215.705 110.393 213.674 110.393Z" fill="#A1A1AA"/>
<path d="M213.674 97.3066C211.645 97.3066 209.999 98.9525 209.999 100.981C209.999 103.009 211.645 104.655 213.674 104.655C215.705 104.655 217.347 103.009 217.347 100.981C217.347 98.9525 215.705 97.3066 213.674 97.3066Z" fill="#A1A1AA"/>
<path d="M213.674 84.2207C211.645 84.2207 209.999 85.8666 209.999 87.8948C209.999 89.9269 211.645 91.5684 213.674 91.5684C215.705 91.5684 217.347 89.9266 217.347 87.8948C217.347 85.867 215.705 84.2207 213.674 84.2207Z" fill="#A1A1AA"/>
</svg>
