<svg width="21" height="20" viewBox="0 0 21 20" fill="none" xmlns="http://www.w3.org/2000/svg">
<path d="M4.25 8.75C3.5625 8.75 3 9.3125 3 10C3 10.6875 3.5625 11.25 4.25 11.25C4.9375 11.25 5.5 10.6875 5.5 10C5.5 9.3125 4.9375 8.75 4.25 8.75ZM16.75 8.75C16.0625 8.75 15.5 9.3125 15.5 10C15.5 10.6875 16.0625 11.25 16.75 11.25C17.4375 11.25 18 10.6875 18 10C18 9.3125 17.4375 8.75 16.75 8.75ZM10.5 8.75C9.8125 8.75 9.25 9.3125 9.25 10C9.25 10.6875 9.8125 11.25 10.5 11.25C11.1875 11.25 11.75 10.6875 11.75 10C11.75 9.3125 11.1875 8.75 10.5 8.75Z" fill="#71717A"/>
</svg>
