<svg width="20" height="20" viewBox="0 0 20 20" fill="none" xmlns="http://www.w3.org/2000/svg">
<path d="M15.8332 1.66667H4.1665C2.78579 1.66667 1.6665 2.78595 1.6665 4.16667V15.8333C1.6665 17.214 2.78579 18.3333 4.1665 18.3333H15.8332C17.2139 18.3333 18.3332 17.214 18.3332 15.8333V4.16667C18.3332 2.78595 17.2139 1.66667 15.8332 1.66667Z" fill="#C80A0A"/>
<path d="M15.1108 11.4974C14.8178 11.1719 14.1667 11.0091 13.2878 11.0091C12.767 11.0091 12.2136 11.0742 11.5626 11.1719C10.8732 10.5262 10.3006 9.76635 9.86987 8.92578C10.1954 7.94922 10.4233 7.00521 10.4233 6.28906C10.4233 5.73568 10.2279 4.85677 9.44669 4.85677C9.21883 4.85677 9.02351 4.98698 8.89331 5.18229C8.56778 5.76823 8.69799 7.07031 9.31648 8.4375C8.86468 9.74392 8.32078 11.0166 7.68888 12.2461C5.96362 12.9622 4.82429 13.7435 4.72664 14.362C4.66153 14.6549 4.85685 15.1432 5.54044 15.1432C6.54956 15.1432 7.65633 13.6784 8.50268 12.181C9.4797 11.845 10.4808 11.5839 11.4975 11.3997C12.7345 12.474 13.8087 12.6367 14.3295 12.6367C15.3712 12.6367 15.4688 11.888 15.1108 11.4974ZM9.05607 5.27995C9.31648 4.88932 9.90242 5.01953 9.90242 5.80078C9.90242 6.32162 9.73966 7.16797 9.41414 8.14453C8.8282 6.77734 8.8282 5.70313 9.05607 5.27995ZM4.92195 14.3945C5.01961 13.8737 5.99617 13.1576 7.52612 12.5391C6.67976 13.9714 5.83341 14.8828 5.31258 14.8828C4.98706 14.8828 4.8894 14.5898 4.92195 14.3945ZM11.3347 11.2044C10.4175 11.3754 9.51435 11.6147 8.63289 11.9206C9.11469 11.0509 9.50731 10.1348 9.80476 9.1862C10.2326 9.91743 10.7462 10.595 11.3347 11.2044ZM11.7579 11.3346C12.7996 11.1719 13.6785 11.2044 14.0691 11.2695C15.0131 11.4648 14.6876 12.6042 13.6459 12.3438C12.8972 12.181 12.2787 11.7578 11.7579 11.3346Z" fill="white"/>
</svg>
