<svg width="20" height="21" viewBox="0 0 20 21" fill="none" xmlns="http://www.w3.org/2000/svg">
<g clip-path="url(#clip0_102_4433)">
<path d="M1.66663 15.881H9.99996V17.5477H1.66663V15.881ZM1.66663 10.0477H13.3333V11.7143H1.66663V10.0477ZM1.66663 4.21433H18.3333V5.881H1.66663V4.21433ZM15.8333 13.5232V8.381H20V10.0477H17.5V15.881C17.5 17.2617 16.3807 18.381 15 18.381C13.6192 18.381 12.5 17.2617 12.5 15.881C12.5 14.5002 13.6192 13.381 15 13.381C15.2921 13.381 15.5726 13.4312 15.8333 13.5232ZM15 16.7143C15.4602 16.7143 15.8333 16.3412 15.8333 15.881C15.8333 15.4207 15.4602 15.0477 15 15.0477C14.5397 15.0477 14.1666 15.4207 14.1666 15.881C14.1666 16.3412 14.5397 16.7143 15 16.7143Z" fill="#71717A"/>
</g>
<defs>
<clipPath id="clip0_102_4433">
<rect width="20" height="20" fill="white" transform="translate(0 0.880997)"/>
</clipPath>
</defs>
</svg>
