<svg width="20" height="21" viewBox="0 0 20 21" fill="none" xmlns="http://www.w3.org/2000/svg">
<path d="M5.7826 12.5749C5.58933 13.0945 5.42527 13.5752 5.27851 14.0605C6.07787 13.48 7.02953 13.1115 8.12661 12.9743C10.221 12.7126 12.0813 11.3297 13.0232 9.59225L11.8101 8.37998L12.9873 7.20106C13.2654 6.92261 13.5434 6.64436 13.8215 6.36631C14.1792 6.00851 14.5833 5.34631 15.0107 4.39332C10.3497 5.11577 7.4957 7.96963 5.7826 12.5749ZM14.1667 8.37873L15 9.21148C14.1667 11.7115 11.6667 14.2115 8.33333 14.6282C6.10955 14.9061 4.72018 16.4339 4.1652 19.2115H2.5C3.33333 14.2115 5 2.54482 17.5 2.54482C16.6674 5.0426 15.8348 6.70852 15.0023 7.54259C14.7218 7.82298 14.4443 8.10077 14.1667 8.37873Z" fill="#71717A"/>
</svg>
