<svg width="28" height="28" viewBox="0 0 28 28" fill="none" xmlns="http://www.w3.org/2000/svg">
<path d="M0 6C0 2.68629 2.68629 0 6 0H22C25.3137 0 28 2.68629 28 6V22C28 25.3137 25.3137 28 22 28H6C2.68629 28 0 25.3137 0 22V6Z" fill="white"/>
<path d="M18.1667 8.99999H22.3334V10.6667H20.6667V21.5C20.6667 21.9602 20.2937 22.3333 19.8334 22.3333H8.16675C7.70651 22.3333 7.33341 21.9602 7.33341 21.5V10.6667H5.66675V8.99999H9.83342V6.49999C9.83342 6.03976 10.2065 5.66666 10.6667 5.66666H17.3334C17.7937 5.66666 18.1667 6.03976 18.1667 6.49999V8.99999ZM19.0001 10.6667H9.00008V20.6667H19.0001V10.6667ZM11.5001 13.1667H13.1667V18.1667H11.5001V13.1667ZM14.8334 13.1667H16.5001V18.1667H14.8334V13.1667ZM11.5001 7.33332V8.99999H16.5001V7.33332H11.5001Z" fill="#71717A"/>
</svg>
