<svg width="20" height="20" viewBox="0 0 20 20" fill="none" xmlns="http://www.w3.org/2000/svg">
<path d="M10.9335 14.1857L7.43443 12.277C6.82615 12.9271 5.96053 13.3333 5.00002 13.3333C3.15907 13.3333 1.66669 11.8409 1.66669 9.99999C1.66669 8.15904 3.15907 6.66666 5.00002 6.66666C5.96048 6.66666 6.82606 7.07287 7.43434 7.72287L10.9335 5.81426C10.8681 5.55366 10.8334 5.28088 10.8334 4.99999C10.8334 3.15904 12.3258 1.66666 14.1667 1.66666C16.0076 1.66666 17.5 3.15904 17.5 4.99999C17.5 6.84094 16.0076 8.33332 14.1667 8.33332C13.2062 8.33332 12.3406 7.92708 11.7323 7.27704L8.23316 9.18566C8.2986 9.44624 8.33335 9.71907 8.33335 9.99999C8.33335 10.2809 8.29861 10.5537 8.2332 10.8142L11.7324 12.7229C12.3406 12.0729 13.2062 11.6667 14.1667 11.6667C16.0076 11.6667 17.5 13.1591 17.5 15C17.5 16.8409 16.0076 18.3333 14.1667 18.3333C12.3258 18.3333 10.8334 16.8409 10.8334 15C10.8334 14.7191 10.8681 14.4462 10.9335 14.1857ZM5.00002 11.6667C5.9205 11.6667 6.66669 10.9205 6.66669 9.99999C6.66669 9.07949 5.9205 8.33332 5.00002 8.33332C4.07955 8.33332 3.33335 9.07949 3.33335 9.99999C3.33335 10.9205 4.07955 11.6667 5.00002 11.6667ZM14.1667 6.66666C15.0872 6.66666 15.8334 5.92046 15.8334 4.99999C15.8334 4.07951 15.0872 3.33332 14.1667 3.33332C13.2462 3.33332 12.5 4.07951 12.5 4.99999C12.5 5.92046 13.2462 6.66666 14.1667 6.66666ZM14.1667 16.6667C15.0872 16.6667 15.8334 15.9205 15.8334 15C15.8334 14.0795 15.0872 13.3333 14.1667 13.3333C13.2462 13.3333 12.5 14.0795 12.5 15C12.5 15.9205 13.2462 16.6667 14.1667 16.6667Z" fill="#71717A"/>
</svg>
