<svg width="20" height="20" viewBox="0 0 20 20" fill="none" xmlns="http://www.w3.org/2000/svg">
<path d="M12.121 1.66667L16.2876 5.83333L14.2043 6.21212L12.121 5.83333L11.7422 3.75L12.121 1.66667Z" fill="#188038"/>
<path d="M12.1215 5.83333V1.66667H5.30336C4.67551 1.66667 4.16699 2.17519 4.16699 2.80303V17.197C4.16699 17.8248 4.67551 18.3333 5.30336 18.3333H15.1518C15.7797 18.3333 16.2882 17.8248 16.2882 17.197V5.83333H12.1215Z" fill="#34A853"/>
<path d="M6.43945 8.10606V13.5985H14.0152V8.10606H6.43945ZM9.75385 12.6515H7.38642V11.3258H9.75385V12.6515ZM9.75385 10.3788H7.38642V9.05303H9.75385V10.3788ZM13.0682 12.6515H10.7008V11.3258H13.0682V12.6515ZM13.0682 10.3788H10.7008V9.05303H13.0682V10.3788Z" fill="white"/>
</svg>
