<svg width="366" height="207" viewBox="0 0 366 207" fill="none" xmlns="http://www.w3.org/2000/svg">
<rect width="366" height="205.881" fill="#DEDEE1"/>
<path d="M169 101.201L173 97.201L184 108.201L191 101.201L197 107.201V89H169V101.201ZM169 106.858V117H175.201L181.172 111.029L173 102.858L169 106.858ZM180.858 117H197V112.858L191 106.858L180.858 117ZM167 85H199C200.105 85 201 85.8954 201 87V119C201 120.105 200.105 121 199 121H167C165.895 121 165 120.105 165 119V87C165 85.8954 165.895 85 167 85ZM190 99C188.343 99 187 97.6569 187 96C187 94.3431 188.343 93 190 93C191.657 93 193 94.3431 193 96C193 97.6569 191.657 99 190 99Z" fill="#71717A"/>
<rect y="0.119141" width="366" height="206" fill="#18181B" fill-opacity="0.2"/>
<path d="M88.5 95C88.5 91.9624 90.9624 89.5 94 89.5H176C179.038 89.5 181.5 91.9624 181.5 95V111C181.5 114.038 179.038 116.5 176 116.5H94C90.9624 116.5 88.5 114.038 88.5 111V95Z" fill="white"/>
<path d="M88.5 95C88.5 91.9624 90.9624 89.5 94 89.5H176C179.038 89.5 181.5 91.9624 181.5 95V111C181.5 114.038 179.038 116.5 176 116.5H94C90.9624 116.5 88.5 114.038 88.5 111V95Z" stroke="#DEDEE1"/>
<path d="M112.009 101.035C111.913 100.733 111.784 100.463 111.621 100.224C111.462 99.9825 111.272 99.777 111.05 99.608C110.828 99.4356 110.574 99.3047 110.289 99.2152C110.007 99.1257 109.697 99.081 109.359 99.081C108.786 99.081 108.269 99.2285 107.808 99.5235C107.348 99.8184 106.983 100.251 106.714 100.821C106.449 101.388 106.317 102.082 106.317 102.904C106.317 103.729 106.451 104.427 106.719 104.997C106.988 105.567 107.356 106 107.823 106.295C108.29 106.59 108.822 106.737 109.419 106.737C109.973 106.737 110.455 106.625 110.866 106.399C111.28 106.174 111.6 105.856 111.825 105.445C112.054 105.03 112.168 104.543 112.168 103.983L112.566 104.058H109.653V102.79H113.655V103.948C113.655 104.803 113.473 105.546 113.108 106.175C112.747 106.802 112.246 107.286 111.607 107.627C110.97 107.969 110.241 108.139 109.419 108.139C108.498 108.139 107.689 107.927 106.993 107.503C106.3 107.079 105.76 106.477 105.372 105.698C104.984 104.916 104.79 103.988 104.79 102.914C104.79 102.102 104.903 101.373 105.129 100.727C105.354 100.08 105.67 99.5317 106.078 99.081C106.489 98.6269 106.971 98.2806 107.525 98.0419C108.082 97.8 108.69 97.679 109.349 97.679C109.9 97.679 110.412 97.7602 110.886 97.9226C111.363 98.085 111.787 98.3154 112.158 98.6137C112.533 98.9119 112.843 99.2666 113.088 99.6776C113.333 100.085 113.499 100.538 113.585 101.035H112.009ZM118.777 108.154C118.024 108.154 117.376 107.993 116.833 107.672C116.293 107.347 115.875 106.891 115.58 106.305C115.288 105.715 115.143 105.024 115.143 104.232C115.143 103.449 115.288 102.76 115.58 102.163C115.875 101.567 116.286 101.101 116.813 100.766C117.343 100.432 117.963 100.264 118.672 100.264C119.103 100.264 119.521 100.335 119.925 100.478C120.33 100.621 120.693 100.844 121.014 101.149C121.336 101.454 121.589 101.85 121.775 102.337C121.96 102.821 122.053 103.41 122.053 104.102V104.629H115.983V103.516H120.596C120.596 103.125 120.517 102.778 120.358 102.477C120.199 102.172 119.975 101.931 119.687 101.756C119.402 101.58 119.067 101.492 118.682 101.492C118.265 101.492 117.9 101.595 117.589 101.8C117.28 102.003 117.042 102.268 116.873 102.596C116.707 102.921 116.624 103.274 116.624 103.655V104.525C116.624 105.035 116.714 105.469 116.893 105.827C117.075 106.185 117.328 106.459 117.653 106.648C117.978 106.833 118.358 106.926 118.792 106.926C119.073 106.926 119.33 106.886 119.562 106.807C119.794 106.724 119.995 106.601 120.164 106.439C120.333 106.277 120.462 106.076 120.552 105.837L121.959 106.091C121.846 106.505 121.644 106.868 121.352 107.18C121.064 107.488 120.701 107.728 120.263 107.901C119.829 108.07 119.334 108.154 118.777 108.154ZM125.189 103.466V108H123.702V100.364H125.129V101.607H125.224C125.399 101.202 125.674 100.877 126.049 100.632C126.427 100.387 126.902 100.264 127.476 100.264C127.996 100.264 128.452 100.374 128.843 100.592C129.234 100.808 129.537 101.129 129.753 101.557C129.968 101.984 130.076 102.513 130.076 103.143V108H128.589V103.322C128.589 102.768 128.445 102.336 128.157 102.024C127.869 101.709 127.473 101.552 126.969 101.552C126.624 101.552 126.317 101.626 126.049 101.776C125.784 101.925 125.573 102.143 125.418 102.432C125.265 102.717 125.189 103.062 125.189 103.466ZM135.361 108.154C134.608 108.154 133.96 107.993 133.417 107.672C132.877 107.347 132.459 106.891 132.164 106.305C131.872 105.715 131.727 105.024 131.727 104.232C131.727 103.449 131.872 102.76 132.164 102.163C132.459 101.567 132.87 101.101 133.397 100.766C133.927 100.432 134.547 100.264 135.256 100.264C135.687 100.264 136.105 100.335 136.509 100.478C136.914 100.621 137.277 100.844 137.598 101.149C137.92 101.454 138.173 101.85 138.359 102.337C138.544 102.821 138.637 103.41 138.637 104.102V104.629H132.567V103.516H137.18C137.18 103.125 137.101 102.778 136.942 102.477C136.783 102.172 136.559 101.931 136.271 101.756C135.986 101.58 135.651 101.492 135.266 101.492C134.849 101.492 134.484 101.595 134.173 101.8C133.864 102.003 133.626 102.268 133.457 102.596C133.291 102.921 133.208 103.274 133.208 103.655V104.525C133.208 105.035 133.298 105.469 133.477 105.827C133.659 106.185 133.912 106.459 134.237 106.648C134.562 106.833 134.942 106.926 135.376 106.926C135.657 106.926 135.914 106.886 136.146 106.807C136.378 106.724 136.579 106.601 136.748 106.439C136.917 106.277 137.046 106.076 137.136 105.837L138.543 106.091C138.43 106.505 138.228 106.868 137.936 107.18C137.648 107.488 137.285 107.728 136.847 107.901C136.413 108.07 135.918 108.154 135.361 108.154ZM140.286 108V100.364H141.723V101.577H141.803C141.942 101.166 142.187 100.843 142.539 100.607C142.893 100.369 143.294 100.249 143.742 100.249C143.834 100.249 143.944 100.253 144.07 100.259C144.199 100.266 144.3 100.274 144.373 100.284V101.706C144.313 101.689 144.207 101.671 144.055 101.651C143.902 101.628 143.75 101.616 143.597 101.616C143.246 101.616 142.933 101.691 142.658 101.84C142.386 101.986 142.171 102.19 142.012 102.452C141.852 102.71 141.773 103.005 141.773 103.337V108H140.286ZM147.813 108.169C147.329 108.169 146.892 108.08 146.501 107.901C146.11 107.718 145.8 107.455 145.571 107.11C145.346 106.765 145.233 106.343 145.233 105.842C145.233 105.411 145.316 105.057 145.482 104.778C145.647 104.5 145.871 104.28 146.153 104.117C146.435 103.955 146.749 103.832 147.097 103.749C147.445 103.666 147.8 103.603 148.161 103.56C148.619 103.507 148.99 103.464 149.275 103.431C149.56 103.395 149.767 103.337 149.896 103.257C150.026 103.178 150.09 103.048 150.09 102.869V102.835C150.09 102.4 149.968 102.064 149.722 101.825C149.481 101.587 149.119 101.467 148.639 101.467C148.138 101.467 147.744 101.578 147.455 101.8C147.17 102.019 146.973 102.263 146.864 102.531L145.467 102.213C145.633 101.749 145.874 101.375 146.193 101.09C146.514 100.801 146.884 100.592 147.301 100.463C147.719 100.331 148.158 100.264 148.619 100.264C148.924 100.264 149.247 100.301 149.588 100.374C149.933 100.443 150.254 100.572 150.553 100.761C150.854 100.95 151.101 101.22 151.294 101.572C151.486 101.92 151.582 102.372 151.582 102.929V108H150.13V106.956H150.07C149.974 107.148 149.83 107.337 149.638 107.523C149.446 107.708 149.199 107.862 148.897 107.985C148.596 108.108 148.234 108.169 147.813 108.169ZM148.137 106.976C148.548 106.976 148.899 106.895 149.191 106.732C149.485 106.57 149.709 106.358 149.862 106.096C150.017 105.831 150.095 105.547 150.095 105.246V104.261C150.042 104.314 149.94 104.364 149.787 104.411C149.638 104.454 149.467 104.492 149.275 104.525C149.083 104.555 148.896 104.583 148.713 104.609C148.531 104.633 148.378 104.652 148.256 104.669C147.968 104.706 147.704 104.767 147.465 104.853C147.23 104.939 147.041 105.063 146.899 105.226C146.759 105.385 146.69 105.597 146.69 105.862C146.69 106.23 146.826 106.509 147.097 106.697C147.369 106.883 147.716 106.976 148.137 106.976ZM157.126 100.364V101.557H152.955V100.364H157.126ZM154.074 98.5341H155.56V105.758C155.56 106.046 155.603 106.263 155.69 106.409C155.776 106.552 155.887 106.649 156.023 106.702C156.162 106.752 156.313 106.777 156.475 106.777C156.594 106.777 156.699 106.769 156.788 106.752C156.878 106.736 156.947 106.722 156.997 106.712L157.266 107.94C157.179 107.974 157.057 108.007 156.898 108.04C156.739 108.076 156.54 108.096 156.301 108.099C155.91 108.106 155.545 108.036 155.207 107.891C154.869 107.745 154.596 107.519 154.387 107.215C154.178 106.91 154.074 106.527 154.074 106.066V98.5341ZM161.98 108.154C161.228 108.154 160.58 107.993 160.036 107.672C159.496 107.347 159.078 106.891 158.783 106.305C158.492 105.715 158.346 105.024 158.346 104.232C158.346 103.449 158.492 102.76 158.783 102.163C159.078 101.567 159.489 101.101 160.016 100.766C160.546 100.432 161.166 100.264 161.876 100.264C162.306 100.264 162.724 100.335 163.128 100.478C163.533 100.621 163.896 100.844 164.217 101.149C164.539 101.454 164.792 101.85 164.978 102.337C165.163 102.821 165.256 103.41 165.256 104.102V104.629H159.186V103.516H163.8C163.8 103.125 163.72 102.778 163.561 102.477C163.402 102.172 163.178 101.931 162.89 101.756C162.605 101.58 162.27 101.492 161.885 101.492C161.468 101.492 161.103 101.595 160.792 101.8C160.483 102.003 160.245 102.268 160.076 102.596C159.91 102.921 159.827 103.274 159.827 103.655V104.525C159.827 105.035 159.917 105.469 160.096 105.827C160.278 106.185 160.532 106.459 160.856 106.648C161.181 106.833 161.561 106.926 161.995 106.926C162.277 106.926 162.533 106.886 162.765 106.807C162.997 106.724 163.198 106.601 163.367 106.439C163.536 106.277 163.665 106.076 163.755 105.837L165.162 106.091C165.049 106.505 164.847 106.868 164.555 107.18C164.267 107.488 163.904 107.728 163.466 107.901C163.032 108.07 162.537 108.154 161.98 108.154Z" fill="#71717A"/>
<path d="M198.5 95C198.5 91.9624 200.962 89.5 204 89.5H272C275.038 89.5 277.5 91.9624 277.5 95V111C277.5 114.038 275.038 116.5 272 116.5H204C200.962 116.5 198.5 114.038 198.5 111V95Z" fill="white"/>
<path d="M198.5 95C198.5 91.9624 200.962 89.5 204 89.5H272C275.038 89.5 277.5 91.9624 277.5 95V111C277.5 114.038 275.038 116.5 272 116.5H204C200.962 116.5 198.5 114.038 198.5 111V95Z" stroke="#DEDEE1"/>
<path d="M221.666 97.8182H223.207V104.515C223.207 105.228 223.04 105.859 222.705 106.409C222.371 106.956 221.9 107.387 221.293 107.702C220.687 108.013 219.976 108.169 219.161 108.169C218.348 108.169 217.639 108.013 217.033 107.702C216.426 107.387 215.955 106.956 215.621 106.409C215.286 105.859 215.119 105.228 215.119 104.515V97.8182H216.655V104.391C216.655 104.851 216.756 105.261 216.958 105.619C217.164 105.977 217.454 106.258 217.828 106.464C218.203 106.666 218.647 106.767 219.161 106.767C219.678 106.767 220.123 106.666 220.498 106.464C220.876 106.258 221.164 105.977 221.363 105.619C221.565 105.261 221.666 104.851 221.666 104.391V97.8182ZM225.322 110.864V100.364H226.773V101.602H226.898C226.984 101.442 227.108 101.259 227.27 101.05C227.433 100.841 227.658 100.659 227.947 100.503C228.235 100.344 228.616 100.264 229.09 100.264C229.706 100.264 230.257 100.42 230.741 100.732C231.224 101.043 231.604 101.492 231.879 102.079C232.157 102.665 232.297 103.371 232.297 104.197C232.297 105.022 232.159 105.73 231.884 106.32C231.609 106.906 231.231 107.359 230.751 107.677C230.27 107.992 229.721 108.149 229.105 108.149C228.641 108.149 228.261 108.071 227.966 107.915C227.675 107.76 227.446 107.577 227.28 107.369C227.115 107.16 226.987 106.974 226.898 106.812H226.808V110.864H225.322ZM226.778 104.182C226.778 104.719 226.856 105.189 227.012 105.594C227.168 105.998 227.393 106.315 227.688 106.543C227.983 106.769 228.344 106.881 228.772 106.881C229.216 106.881 229.587 106.764 229.885 106.528C230.184 106.29 230.409 105.967 230.562 105.559C230.717 105.151 230.795 104.692 230.795 104.182C230.795 103.678 230.719 103.226 230.567 102.825C230.417 102.424 230.192 102.107 229.89 101.875C229.592 101.643 229.219 101.527 228.772 101.527C228.341 101.527 227.976 101.638 227.678 101.86C227.383 102.082 227.159 102.392 227.007 102.79C226.854 103.188 226.778 103.652 226.778 104.182ZM235.449 97.8182V108H233.962V97.8182H235.449ZM240.665 108.154C239.949 108.154 239.324 107.99 238.791 107.662C238.257 107.334 237.843 106.875 237.548 106.285C237.253 105.695 237.105 105.005 237.105 104.217C237.105 103.424 237.253 102.732 237.548 102.139C237.843 101.545 238.257 101.085 238.791 100.756C239.324 100.428 239.949 100.264 240.665 100.264C241.381 100.264 242.006 100.428 242.539 100.756C243.073 101.085 243.487 101.545 243.782 102.139C244.077 102.732 244.225 103.424 244.225 104.217C244.225 105.005 244.077 105.695 243.782 106.285C243.487 106.875 243.073 107.334 242.539 107.662C242.006 107.99 241.381 108.154 240.665 108.154ZM240.67 106.906C241.134 106.906 241.519 106.784 241.824 106.538C242.128 106.293 242.354 105.967 242.5 105.559C242.649 105.151 242.723 104.702 242.723 104.212C242.723 103.724 242.649 103.277 242.5 102.869C242.354 102.458 242.128 102.129 241.824 101.88C241.519 101.631 241.134 101.507 240.67 101.507C240.203 101.507 239.815 101.631 239.507 101.88C239.202 102.129 238.975 102.458 238.826 102.869C238.68 103.277 238.607 103.724 238.607 104.212C238.607 104.702 238.68 105.151 238.826 105.559C238.975 105.967 239.202 106.293 239.507 106.538C239.815 106.784 240.203 106.906 240.67 106.906ZM248.106 108.169C247.622 108.169 247.185 108.08 246.794 107.901C246.403 107.718 246.093 107.455 245.864 107.11C245.639 106.765 245.526 106.343 245.526 105.842C245.526 105.411 245.609 105.057 245.775 104.778C245.94 104.5 246.164 104.28 246.446 104.117C246.728 103.955 247.042 103.832 247.39 103.749C247.738 103.666 248.093 103.603 248.454 103.56C248.912 103.507 249.283 103.464 249.568 103.431C249.853 103.395 250.06 103.337 250.189 103.257C250.319 103.178 250.383 103.048 250.383 102.869V102.835C250.383 102.4 250.261 102.064 250.015 101.825C249.773 101.587 249.412 101.467 248.932 101.467C248.431 101.467 248.037 101.578 247.748 101.8C247.463 102.019 247.266 102.263 247.157 102.531L245.76 102.213C245.925 101.749 246.167 101.375 246.486 101.09C246.807 100.801 247.177 100.592 247.594 100.463C248.012 100.331 248.451 100.264 248.912 100.264C249.217 100.264 249.54 100.301 249.881 100.374C250.226 100.443 250.547 100.572 250.846 100.761C251.147 100.95 251.394 101.22 251.586 101.572C251.779 101.92 251.875 102.372 251.875 102.929V108H250.423V106.956H250.363C250.267 107.148 250.123 107.337 249.931 107.523C249.739 107.708 249.492 107.862 249.19 107.985C248.889 108.108 248.527 108.169 248.106 108.169ZM248.43 106.976C248.84 106.976 249.192 106.895 249.483 106.732C249.778 106.57 250.002 106.358 250.155 106.096C250.31 105.831 250.388 105.547 250.388 105.246V104.261C250.335 104.314 250.233 104.364 250.08 104.411C249.931 104.454 249.76 104.492 249.568 104.525C249.376 104.555 249.189 104.583 249.006 104.609C248.824 104.633 248.671 104.652 248.549 104.669C248.26 104.706 247.997 104.767 247.758 104.853C247.523 104.939 247.334 105.063 247.192 105.226C247.052 105.385 246.983 105.597 246.983 105.862C246.983 106.23 247.119 106.509 247.39 106.697C247.662 106.883 248.009 106.976 248.43 106.976ZM256.713 108.149C256.097 108.149 255.547 107.992 255.063 107.677C254.582 107.359 254.204 106.906 253.929 106.32C253.658 105.73 253.522 105.022 253.522 104.197C253.522 103.371 253.659 102.665 253.934 102.079C254.213 101.492 254.594 101.043 255.078 100.732C255.562 100.42 256.11 100.264 256.723 100.264C257.197 100.264 257.578 100.344 257.867 100.503C258.158 100.659 258.384 100.841 258.543 101.05C258.705 101.259 258.831 101.442 258.921 101.602H259.01V97.8182H260.497V108H259.045V106.812H258.921C258.831 106.974 258.702 107.16 258.533 107.369C258.367 107.577 258.139 107.76 257.847 107.915C257.555 108.071 257.177 108.149 256.713 108.149ZM257.042 106.881C257.469 106.881 257.83 106.769 258.125 106.543C258.424 106.315 258.649 105.998 258.801 105.594C258.957 105.189 259.035 104.719 259.035 104.182C259.035 103.652 258.959 103.188 258.806 102.79C258.654 102.392 258.43 102.082 258.135 101.86C257.84 101.638 257.476 101.527 257.042 101.527C256.594 101.527 256.221 101.643 255.923 101.875C255.625 102.107 255.399 102.424 255.247 102.825C255.098 103.226 255.023 103.678 255.023 104.182C255.023 104.692 255.099 105.151 255.252 105.559C255.404 105.967 255.63 106.29 255.928 106.528C256.23 106.764 256.601 106.881 257.042 106.881Z" fill="#71717A"/>
</svg>
