<svg width="20" height="20" viewBox="0 0 20 20" fill="none" xmlns="http://www.w3.org/2000/svg">
<path d="M16.3281 7.22656C15.5859 11.4844 11.3281 15.1172 10.0391 15.9375C8.78906 16.7578 7.61719 15.5859 7.1875 14.7656C6.71875 13.75 5.27344 8.35937 4.88281 7.89062C4.53125 7.42187 3.35938 8.35937 3.35938 8.35937L2.85156 7.61719C2.85156 7.61719 5.15625 4.84375 6.91406 4.53125C8.75 4.14062 8.75 7.38281 9.21875 9.14062C9.64844 10.8984 9.92188 11.875 10.2734 11.875C10.6641 11.875 11.4063 10.9375 12.1875 9.41406C13.0078 7.96875 12.1484 6.64062 10.5859 7.57812C11.25 3.86719 17.0703 2.96875 16.3281 7.22656Z" fill="#1EB8EB"/>
</svg>
