<svg width="20" height="20" viewBox="0 0 20 20" fill="none" xmlns="http://www.w3.org/2000/svg">
<path d="M9.99609 5.28151C9.99609 5.28151 5.7815 5.28152 4.7237 5.55638C4.15731 5.71463 3.69094 6.18101 3.53268 6.75573C3.25782 7.81354 3.25781 10.0042 3.25781 10.0042C3.25781 10.0042 3.25782 12.2031 3.53268 13.2443C3.69094 13.819 4.14898 14.277 4.7237 14.4353C5.78983 14.7185 9.99609 14.7185 9.99609 14.7185C9.99609 14.7185 14.219 14.7185 15.2768 14.4436C15.8515 14.2854 16.3096 13.8356 16.4595 13.2526C16.7427 12.2031 16.7427 10.0125 16.7427 10.0125C16.7427 10.0125 16.751 7.81354 16.4595 6.75573C16.3096 6.18101 15.8515 5.72297 15.2768 5.57305C14.219 5.28152 9.99609 5.28151 9.99609 5.28151ZM8.65508 7.98021L12.1617 10.0042L8.65508 12.0198V7.98021Z" fill="#FF0000"/>
</svg>
